<?xml version="1.0" encoding="utf-8"?>
<!-- Generator: Adobe Illustrator 19.0.0, SVG Export Plug-In . SVG Version: 6.00 Build 0)  -->
<svg version="1.1" id="Camada_1" xmlns="http://www.w3.org/2000/svg" xmlns:xlink="http://www.w3.org/1999/xlink" x="0px" y="0px"
	 viewBox="-100 342 410 110" style="enable-background:new -100 342 410 110;" xml:space="preserve">
<style type="text/css">
	.st0{fill:none;stroke:#929394;stroke-width:0.8504;stroke-miterlimit:22.9256;}
	.st1{fill:none;stroke:#37615F;stroke-width:3;stroke-miterlimit:22.9256;}
	.st2{fill:#929394;}
	.st3{fill:#37615F;}
</style>
<line id="XMLID_86_" class="st0" x1="3.5" y1="346.3" x2="3.5" y2="447.8"/>
<polyline id="XMLID_85_" class="st1" points="-86.4,401.6 -76.3,371.5 -65.9,401.6 "/>
<polyline id="XMLID_84_" class="st1" points="-97.7,386.3 -42.8,386.6 -59.9,396.1 -46.3,405.4 -72,405.4 "/>
<line id="XMLID_83_" class="st1" x1="-32" y1="392.5" x2="-32" y2="400.1"/>
<polyline id="XMLID_82_" class="st1" points="-36.1,386.6 -14.1,386.6 -23.6,395.6 -12.8,405.5 -38.6,405.5 "/>
<path id="XMLID_124_" class="st2" d="M302.1,415.1l3.6-9.2h0.7l3.6,9.2h-1.2l-0.9-2.3h-3.7l-0.9,2.3H302.1z M304.7,411.6h2.7
	l-1.4-3.5L304.7,411.6z M300,415.1v-9.2h1.1v9.2H300z M292,411.1v4h-1.1V406h4.8c0.7,0,1.3,0.2,1.7,0.7s0.6,1.1,0.6,1.9
	c0,0.6-0.2,1.2-0.5,1.7s-0.7,0.8-1.3,0.9l2,4H297l-2-4L292,411.1L292,411.1z M292,409.8h3.7c0.4,0,0.7-0.1,0.9-0.3
	c0.2-0.2,0.3-0.5,0.3-0.9s-0.1-0.7-0.3-0.9c-0.2-0.2-0.5-0.3-0.9-0.3H292V409.8z M282,415.1l3.6-9.2h0.7l3.6,9.2h-1.2l-0.9-2.3h-3.7
	l-0.9,2.3H282z M284.5,411.6h2.7l-1.4-3.5L284.5,411.6z M275.8,415.1v-9.2h1.1v7.8h5.2v1.3L275.8,415.1L275.8,415.1z M267.3,415.1
	v-9.2h6.6v1.3h-5.5v2.3h3.6v1.3h-3.6v2.9h5.8v1.3L267.3,415.1L267.3,415.1z M262.2,415.1v-7.9h-3v-1.3h7v1.3h-3v7.9H262.2z
	 M254.5,415.4c-1.2,0-2.3-0.5-3.1-1.4s-1.2-2.1-1.2-3.5s0.4-2.6,1.2-3.5s1.8-1.4,3.1-1.4s2.3,0.5,3.1,1.4c0.8,0.9,1.2,2.1,1.2,3.5
	s-0.4,2.6-1.2,3.5C256.7,414.9,255.7,415.4,254.5,415.4z M254.5,414c0.9,0,1.7-0.3,2.3-1c0.6-0.7,0.9-1.5,0.9-2.5s-0.3-1.9-0.9-2.5
	c-0.6-0.7-1.4-1-2.3-1s-1.7,0.3-2.3,1s-0.9,1.5-0.9,2.5s0.3,1.9,0.9,2.5C252.8,413.6,253.5,414,254.5,414z M242.4,410.8v4.3h-1.1
	v-9.2h1.1v3.6h4.9v-3.6h1.1v9.2h-1.1v-4.3C247.3,410.8,242.4,410.8,242.4,410.8z M216.7,411.5v-1.3h2.9v2.8
	c-0.4,0.8-0.9,1.4-1.6,1.8c-0.6,0.4-1.4,0.6-2.3,0.6c-1.3,0-2.3-0.5-3.2-1.4c-0.8-0.9-1.2-2.1-1.2-3.5s0.4-2.6,1.2-3.5
	s1.9-1.4,3.2-1.4c0.8,0,1.5,0.2,2.2,0.5c0.6,0.4,1.1,0.9,1.6,1.6l-0.8,0.8c-0.3-0.5-0.7-0.9-1.2-1.2c-0.5-0.3-1.1-0.4-1.7-0.4
	c-1,0-1.7,0.3-2.4,1c-0.6,0.7-0.9,1.5-0.9,2.5s0.3,1.9,0.9,2.5c0.6,0.7,1.4,1,2.4,1c0.6,0,1.2-0.1,1.7-0.4s0.9-0.6,1.1-1.1v-1
	L216.7,411.5L216.7,411.5z M221.5,415.1v-9.2h0.6l4.4,6.4v-6.4h1.1v9.2H227l-4.4-6.4v6.4H221.5z M207.9,415.1v-9.2h1.1v9.2H207.9z
	 M199,413.9l0.5-1.2c0.5,0.4,1,0.8,1.6,1s1.1,0.4,1.6,0.4c0.6,0,1.1-0.2,1.5-0.5s0.6-0.8,0.6-1.3s-0.2-0.9-0.5-1.2
	c-0.3-0.3-0.9-0.4-1.7-0.4c-1.3,0-2.2-0.2-2.6-0.6c-0.5-0.4-0.7-1-0.7-1.8s0.3-1.4,0.8-1.9s1.2-0.7,2.1-0.7c0.6,0,1.2,0.1,1.8,0.3
	c0.6,0.2,1.1,0.5,1.6,1l-0.6,1.2c-0.4-0.4-0.9-0.7-1.4-0.9c-0.5-0.2-1-0.3-1.4-0.3c-0.5,0-1,0.1-1.3,0.4c-0.3,0.2-0.5,0.6-0.5,1
	s0.2,0.7,0.5,0.9c0.3,0.2,0.9,0.3,1.7,0.3c1.1,0,2,0.2,2.5,0.7c0.6,0.5,0.9,1.2,0.9,2.2c0,0.9-0.3,1.6-0.9,2.2
	c-0.6,0.6-1.3,0.9-2.2,0.9c-0.7,0-1.4-0.1-2-0.4C200.2,414.6,199.6,414.4,199,413.9z M191.2,415.1v-9.2h6.6v1.3h-5.5v2.3h3.6v1.3
	h-3.6v2.9h5.8v1.3L191.2,415.1L191.2,415.1z M185.6,407.3h-2v6.5h2c0.8,0,1.5-0.3,2-0.9s0.7-1.4,0.7-2.4s-0.2-1.8-0.7-2.4
	C187.1,407.6,186.4,407.3,185.6,407.3z M185.6,405.9c1.1,0,2.1,0.4,2.8,1.3s1,2,1,3.3c0,1.4-0.3,2.5-1,3.3s-1.6,1.2-2.8,1.2h-3.1
	v-9.2L185.6,405.9L185.6,405.9z M168.9,411.1v4h-1.1V406h4.8c0.7,0,1.3,0.2,1.7,0.7s0.6,1.1,0.6,1.9c0,0.6-0.2,1.2-0.5,1.7
	s-0.7,0.8-1.3,0.9l2,4h-1.2l-2-4L168.9,411.1L168.9,411.1z M168.9,409.8h3.7c0.4,0,0.7-0.1,0.9-0.3c0.2-0.2,0.3-0.5,0.3-0.9
	s-0.1-0.7-0.3-0.9c-0.2-0.2-0.5-0.3-0.9-0.3h-3.7V409.8z M161.7,415.4c-1.2,0-2.3-0.5-3.1-1.4s-1.2-2.1-1.2-3.5s0.4-2.6,1.2-3.5
	s1.8-1.4,3.1-1.4s2.3,0.5,3.1,1.4s1.2,2.1,1.2,3.5s-0.4,2.6-1.2,3.5S163,415.4,161.7,415.4z M161.7,414c0.9,0,1.7-0.3,2.3-1
	s0.9-1.5,0.9-2.5s-0.3-1.9-0.9-2.5c-0.6-0.7-1.4-1-2.3-1s-1.7,0.3-2.3,1s-0.9,1.5-0.9,2.5s0.3,1.9,0.9,2.5
	C160.1,413.6,160.8,414,161.7,414z M154.5,415.1v-9.2h1.1v9.2H154.5z M146.5,411.1v4h-1.1V406h4.8c0.7,0,1.3,0.2,1.7,0.7
	s0.6,1.1,0.6,1.9c0,0.6-0.2,1.2-0.5,1.7s-0.7,0.8-1.3,0.9l2,4h-1.2l-2-4L146.5,411.1L146.5,411.1z M146.5,409.8h3.7
	c0.4,0,0.7-0.1,0.9-0.3c0.2-0.2,0.3-0.5,0.3-0.9s-0.1-0.7-0.3-0.9c-0.2-0.2-0.5-0.3-0.9-0.3h-3.7V409.8z M137,415.1v-9.2h6.6v1.3
	h-5.5v2.3h3.6v1.3h-3.6v2.9h5.8v1.3L137,415.1L137,415.1z M131.9,415.1v-7.9h-3v-1.3h7v1.3h-3v7.9H131.9z M121.7,415.1v-9.2h0.6
	l4.4,6.4v-6.4h1.1v9.2h-0.6l-4.4-6.4v6.4H121.7z M118.2,415.1v-9.2h1.1v9.2H118.2z M97.6,415.1l3.6-9.2h0.7l3.6,9.2h-1.2l-0.9-2.3
	h-3.7l-0.9,2.3H97.6z M100.1,411.6h2.7l-1.4-3.5L100.1,411.6z M91.2,411.1v4h-1.1V406h4.8c0.7,0,1.3,0.2,1.7,0.7
	c0.4,0.5,0.6,1.1,0.6,1.9c0,0.6-0.2,1.2-0.5,1.7s-0.7,0.8-1.3,0.9l2,4h-1.1l-2-4L91.2,411.1L91.2,411.1z M91.2,409.8h3.7
	c0.4,0,0.7-0.1,0.9-0.3c0.2-0.2,0.3-0.5,0.3-0.9s-0.1-0.7-0.3-0.9c-0.2-0.2-0.5-0.3-0.9-0.3h-3.7V409.8z M80.8,406h1.1v5.9
	c0,0.9,0.2,1.5,0.5,1.8s0.9,0.5,1.9,0.5c0.9,0,1.6-0.2,1.9-0.5s0.5-0.9,0.5-1.8V406h1.1v6.2c0,1.1-0.3,1.9-0.8,2.4s-1.4,0.7-2.7,0.7
	c-1.2,0-2.1-0.2-2.6-0.7s-0.8-1.3-0.8-2.4L80.8,406L80.8,406z M75.6,415.1v-7.9h-3v-1.3h7v1.3h-3v7.9H75.6z M65.5,415.1v-9.2h6.6
	v1.3h-5.5v2.3h3.6v1.3h-3.6v2.9h5.8v1.3L65.5,415.1L65.5,415.1z M60.4,415.1v-7.9h-3v-1.3h7v1.3h-3v7.9H60.4z M55.2,415.1v-9.2h1.1
	v9.2H55.2z M45.9,406H47v5.9c0,0.9,0.2,1.5,0.5,1.8s0.9,0.5,1.9,0.5c0.9,0,1.6-0.2,1.9-0.5c0.3-0.3,0.5-0.9,0.5-1.8V406h1.1v6.2
	c0,1.1-0.3,1.9-0.8,2.4s-1.4,0.7-2.7,0.7c-1.2,0-2.1-0.2-2.6-0.7s-0.8-1.3-0.8-2.4V406C46,406,45.9,406,45.9,406z M41.9,414.8l1,1.5
	h-1.3l-0.7-1.1c-0.4,0-0.6,0.1-0.7,0.1s-0.2,0-0.3,0c-1.2,0-2.3-0.5-3.1-1.4s-1.2-2.1-1.2-3.5s0.4-2.6,1.2-3.5s1.8-1.4,3.1-1.4
	s2.3,0.5,3.1,1.4s1.2,2.1,1.2,3.5c0,0.9-0.2,1.8-0.6,2.5C43.1,413.8,42.6,414.4,41.9,414.8z M41.2,413.8c0.6-0.3,1-0.7,1.3-1.3
	s0.5-1.2,0.5-1.9c0-1-0.3-1.9-0.9-2.5c-0.6-0.7-1.4-1-2.3-1s-1.7,0.3-2.3,1s-0.9,1.5-0.9,2.5s0.3,1.8,0.9,2.5c0.6,0.7,1.3,1,2.2,1
	h0.1c0.1,0,0.1,0,0.2,0l-0.7-1.1h1.3L41.2,413.8z M28.1,411.1v4H27V406h4.8c0.7,0,1.3,0.2,1.7,0.7s0.6,1.1,0.6,1.9
	c0,0.6-0.2,1.2-0.5,1.7s-0.7,0.8-1.3,0.9l1.9,4H33l-2-4L28.1,411.1L28.1,411.1z M28.1,409.8h3.7c0.4,0,0.7-0.1,0.9-0.3
	c0.2-0.2,0.3-0.5,0.3-0.9s-0.1-0.7-0.3-0.9c-0.2-0.2-0.5-0.3-0.9-0.3h-3.7V409.8z M18.1,415.1l3.6-9.2h0.7l3.6,9.2h-1.2l-0.9-2.3
	h-3.7l-0.9,2.3H18.1z M20.7,411.6h2.7l-1.4-3.5L20.7,411.6z"/>
<path id="XMLID_121_" class="st3" d="M234.8,414.9L234.8,414.9c0,0.1,0,0.2-0.1,0.2c0,0-0.1,0-0.2,0.1c-0.1,0-0.1,0-0.2,0
	c-0.1,0-0.2,0-0.2,0c-0.1,0-0.1,0-0.2-0.1c0,0-0.1,0-0.1-0.1v-0.1v-13.5v-0.1c0,0,0-0.1,0.1-0.1c0,0,0.1,0,0.2-0.1
	c0.1,0,0.1,0,0.2,0c0.1,0,0.2,0,0.2,0c0.1,0,0.1,0,0.2,0.1c0,0,0.1,0,0.1,0.1v0.1V414.9z M111.6,414.9L111.6,414.9
	c0,0.1,0,0.2-0.1,0.2c0,0-0.1,0-0.2,0.1c-0.1,0-0.1,0-0.2,0s-0.2,0-0.2,0c-0.1,0-0.1,0-0.2-0.1c0,0-0.1,0-0.1-0.1v-0.1v-13.5v-0.1
	l0.1-0.1c0,0,0.1,0,0.2-0.1c0.1,0,0.1,0,0.2,0s0.2,0,0.2,0c0.1,0,0.1,0,0.2,0.1c0,0,0.1,0,0.1,0.1v0.1V414.9z"/>
<path id="XMLID_88_" class="st3" d="M297.7,396.4v-14h11v1.6h-9.3v4.1h5.6v1.6h-5.6v5.1h9.8v1.6L297.7,396.4L297.7,396.4z
	 M289.3,396.4V384h-5.9v-1.6h13.5v1.6H291v12.4H289.3z M271,396.4v-14h0.9l9.1,10.5v-10.5h1.7v14h-0.9l-9.1-10.5v10.5H271z
	 M253.6,396.4l6.9-14h1.4l6.9,14h-1.9l-1.9-3.8h-7.7l-1.9,3.8H253.6z M258.1,391h6.2l-3.1-6.2L258.1,391z M251.2,391.9l1.4,1
	c-0.6,1.2-1.5,2.2-2.6,2.8c-1.1,0.7-2.4,1-3.8,1c-2.1,0-3.8-0.7-5.2-2.1s-2-3.1-2-5.3c0-2.1,0.7-3.9,2-5.3c1.4-1.4,3.1-2.1,5.2-2.1
	c1.3,0,2.5,0.3,3.5,0.8c1.1,0.6,1.9,1.4,2.6,2.4l-1.5,1c-0.4-0.8-1.1-1.5-1.9-2c-0.8-0.5-1.8-0.7-2.8-0.7c-1.6,0-2.9,0.5-3.9,1.6
	s-1.5,2.4-1.5,4.1c0,1.6,0.5,3,1.5,4.1s2.3,1.6,3.9,1.6c1.1,0,2.1-0.3,2.9-0.8C250,393.8,250.7,393,251.2,391.9z M224.2,396.4v-14
	h0.9l9.1,10.5v-10.5h1.7v14H235l-9.1-10.5v10.5H224.2z M206.8,396.4l6.9-14h1.4l6.9,14h-1.9l-1.9-3.8h-7.7l-1.9,3.8H206.8z
	 M211.3,391h6.2l-3.1-6.2L211.3,391z M194.3,396.4v-14h8c1.4,0,2.4,0.3,3.2,1s1.2,1.6,1.2,2.9c0,1-0.3,1.9-0.9,2.6s-1.4,1.2-2.4,1.3
	l3.5,6.1H205l-3.5-6.1h-5.4v6.2H194.3z M196,388.6h6.2c0.9,0,1.5-0.2,2-0.6s0.7-1,0.7-1.7s-0.2-1.3-0.7-1.7
	c-0.4-0.4-1.1-0.6-1.9-0.6H196V388.6L196,388.6z M177.4,396.4v-14h8.3c1.4,0,2.4,0.3,3.1,0.9s1.1,1.5,1.1,2.6c0,0.6-0.1,1.1-0.3,1.5
	s-0.5,0.8-0.9,1.1c0.7,0.4,1.3,1,1.7,1.6s0.6,1.3,0.6,2.2c0,1.3-0.4,2.3-1.3,3.1s-2,1.1-3.5,1.1L177.4,396.4L177.4,396.4z
	 M179.2,394.8h7.3c0.8,0,1.4-0.2,1.9-0.7s0.7-1.1,0.7-1.9s-0.2-1.4-0.7-1.9s-1.1-0.7-1.9-0.7h-7.3V394.8z M179.2,387.9h6.7
	c0.7,0,1.3-0.2,1.7-0.5s0.6-0.8,0.6-1.4c0-0.7-0.2-1.2-0.6-1.5c-0.4-0.3-0.9-0.5-1.7-0.5h-6.7V387.9z M151.4,396.4l6.9-14h1.4
	l6.9,14h-1.9l-1.9-3.8h-7.7l-1.8,3.8H151.4z M155.9,391h6.2l-3.1-6.2L155.9,391z M138.9,396.4v-14h8c1.4,0,2.4,0.3,3.2,1
	s1.2,1.6,1.2,2.9c0,1-0.3,1.9-0.9,2.6s-1.4,1.2-2.4,1.3l3.5,6.1h-1.9l-3.5-6.1h-5.4v6.2H138.9z M140.6,388.6h6.2
	c0.9,0,1.5-0.2,2-0.6s0.7-1,0.7-1.7s-0.2-1.3-0.7-1.7c-0.4-0.4-1.1-0.6-1.9-0.6h-6.3V388.6L140.6,388.6z M133,396.4v-14.1h1.8v14.1
	H133z M124.6,396.4V384h-5.9v-1.6h13.5v1.6h-5.9v12.4H124.6z M106.6,396.4v-14h8c1.4,0,2.4,0.3,3.2,1s1.2,1.6,1.2,2.9
	c0,1-0.3,1.9-0.9,2.6s-1.4,1.2-2.4,1.3l3.5,6.1h-1.9l-3.5-6.1h-5.5v6.2H106.6z M108.3,388.6h6.2c0.9,0,1.5-0.2,2-0.6s0.7-1,0.7-1.7
	s-0.2-1.3-0.7-1.7c-0.4-0.4-1.1-0.6-1.9-0.6h-6.3C108.3,383.9,108.3,388.6,108.3,388.6z M89.3,396.4l6.9-14h1.4l6.9,14h-1.9
	l-1.9-3.8H93l-1.9,3.8H89.3z M93.8,391h6.2l-3.1-6.2L93.8,391z M74.5,396.4v-14h8.3c1.4,0,2.4,0.3,3.1,0.9s1.1,1.5,1.1,2.6
	c0,0.6-0.1,1.1-0.3,1.5c-0.2,0.4-0.5,0.8-0.9,1.1c0.7,0.4,1.3,1,1.7,1.6c0.4,0.6,0.6,1.3,0.6,2.2c0,1.3-0.4,2.3-1.3,3.1
	s-2,1.1-3.5,1.1L74.5,396.4L74.5,396.4z M76.2,394.8h7.3c0.8,0,1.4-0.2,1.9-0.7s0.7-1.1,0.7-1.9s-0.2-1.4-0.7-1.9s-1.1-0.7-1.9-0.7
	h-7.3V394.8z M76.2,387.9h6.7c0.7,0,1.3-0.2,1.7-0.5s0.6-0.8,0.6-1.4c0-0.7-0.2-1.2-0.6-1.5s-0.9-0.5-1.7-0.5h-6.7V387.9z
	 M48.5,396.4l6.9-14h1.4l6.9,14h-1.9l-1.9-3.8h-7.7l-1.9,3.8H48.5z M53,391h6.2l-3.1-6.2L53,391z M34.7,396.4v-14h0.9l9.1,10.5
	v-10.5h1.7v14h-0.9l-9.1-10.5v10.5H34.7z M17.3,396.4l6.9-14h1.4l6.9,14h-1.9l-1.9-3.8H21l-1.9,3.8H17.3z M21.8,391H28l-3.1-6.2
	L21.8,391z"/>
</svg>
